<mxfile host="www.draw.io" modified="2020-01-29T15:36:36.857Z" agent="Mozilla/5.0 (X11; Linux x86_64) AppleWebKit/537.36 (KHTML, like Gecko) Chrome/79.0.3945.130 Safari/537.36" etag="9Om9LGvb8l7AuJAgEur3" version="12.6.1" type="github" pages="2">
  <diagram id="jVsoBgdSCv7oKsBq2NfE" name="Page-1">
    <mxGraphModel dx="1408" dy="727" grid="1" gridSize="10" guides="1" tooltips="1" connect="1" arrows="1" fold="1" page="1" pageScale="1" pageWidth="827" pageHeight="1169" math="0" shadow="0">
      <root>
        <mxCell id="0"/>
        <mxCell id="1" parent="0"/>
        <mxCell id="19JxqFGFw_uIXD3I0nTp-1" value="&lt;font style=&quot;font-size: 18px&quot;&gt;Data Structures and Algorithms: Visual Notes&lt;/font&gt;" style="rounded=0;whiteSpace=wrap;html=1;" parent="1" vertex="1">
          <mxGeometry x="218" y="50" width="390" height="60" as="geometry"/>
        </mxCell>
        <mxCell id="MJP0Cc2QLXMnN3BBkeJV-1" value="" style="shape=cube;whiteSpace=wrap;html=1;boundedLbl=1;backgroundOutline=1;darkOpacity=0.05;darkOpacity2=0.1;size=51;" parent="1" vertex="1">
          <mxGeometry x="250" y="360" width="223" height="150" as="geometry"/>
        </mxCell>
        <mxCell id="m1HA_7kenbnpvmxccP-1-1" value="" style="rhombus;whiteSpace=wrap;html=1;" vertex="1" parent="1">
          <mxGeometry x="140" y="200" width="80" height="80" as="geometry"/>
        </mxCell>
      </root>
    </mxGraphModel>
  </diagram>
  <diagram id="LUsMnAs-2MXrkKT5neT-" name="Page-2">
    <mxGraphModel dx="1408" dy="727" grid="1" gridSize="10" guides="1" tooltips="1" connect="1" arrows="1" fold="1" page="1" pageScale="1" pageWidth="827" pageHeight="1169" math="0" shadow="0">
      <root>
        <mxCell id="giYdh3ISDrMlxW2s-pVe-0"/>
        <mxCell id="giYdh3ISDrMlxW2s-pVe-1" parent="giYdh3ISDrMlxW2s-pVe-0"/>
        <mxCell id="xTCBw5VZEXNSoSJoj3pI-0" value="&lt;span style=&quot;font-size: 18px&quot;&gt;Mubariz Afzal&lt;/span&gt;" style="rounded=0;whiteSpace=wrap;html=1;" parent="giYdh3ISDrMlxW2s-pVe-1" vertex="1">
          <mxGeometry x="218" y="50" width="390" height="60" as="geometry"/>
        </mxCell>
        <mxCell id="Xf5nGPz5Z8jNUG6h7oTN-0" value="" style="shape=process;whiteSpace=wrap;html=1;backgroundOutline=1;fillColor=#f5f5f5;strokeColor=#666666;fontColor=#333333;" parent="giYdh3ISDrMlxW2s-pVe-1" vertex="1">
          <mxGeometry x="290" y="320" width="120" height="60" as="geometry"/>
        </mxCell>
      </root>
    </mxGraphModel>
  </diagram>
</mxfile>
